<mxfile host="app.diagrams.net" modified="2023-11-05T17:51:30.499Z" agent="Mozilla/5.0 (Windows NT 10.0; Win64; x64) AppleWebKit/537.36 (KHTML, like Gecko) Chrome/118.0.0.0 Safari/537.36" etag="F1Uj9XKPmk1ODzhubkeY" version="22.0.8" type="device">
  <diagram name="Página-1" id="aVKlj-wph3ZYjXPx7Ir9">
    <mxGraphModel dx="1493" dy="584" grid="1" gridSize="10" guides="1" tooltips="1" connect="1" arrows="1" fold="1" page="1" pageScale="1" pageWidth="827" pageHeight="1169" math="0" shadow="0">
      <root>
        <mxCell id="0" />
        <mxCell id="1" parent="0" />
        <mxCell id="Cu-u3UZeV3YFpkfiLsuk-86" value="" style="group" vertex="1" connectable="0" parent="1">
          <mxGeometry x="39.26" y="480" width="1010.75" height="990" as="geometry" />
        </mxCell>
        <mxCell id="CFgbsGdyiQTh95iq2qeZ-24" value="Usuario" style="shape=umlActor;verticalLabelPosition=bottom;verticalAlign=top;html=1;outlineConnect=0;" parent="Cu-u3UZeV3YFpkfiLsuk-86" vertex="1">
          <mxGeometry y="457.29999999999995" width="34.73684210526316" height="65.4" as="geometry" />
        </mxCell>
        <mxCell id="CFgbsGdyiQTh95iq2qeZ-25" value="Michi y Firu" style="shape=umlFrame;whiteSpace=wrap;html=1;pointerEvents=0;" parent="Cu-u3UZeV3YFpkfiLsuk-86" vertex="1">
          <mxGeometry x="81.78999999999999" width="918.95" height="990" as="geometry" />
        </mxCell>
        <mxCell id="CFgbsGdyiQTh95iq2qeZ-28" value="VISUALIZAR PAGINA WEB&amp;nbsp;" style="ellipse;whiteSpace=wrap;html=1;" parent="Cu-u3UZeV3YFpkfiLsuk-86" vertex="1">
          <mxGeometry x="120.74421052631581" y="451.8499999999999" width="162.10526315789474" height="76.30000000000001" as="geometry" />
        </mxCell>
        <mxCell id="Cu-u3UZeV3YFpkfiLsuk-76" style="edgeStyle=orthogonalEdgeStyle;rounded=0;orthogonalLoop=1;jettySize=auto;html=1;" edge="1" parent="Cu-u3UZeV3YFpkfiLsuk-86" source="CFgbsGdyiQTh95iq2qeZ-24" target="CFgbsGdyiQTh95iq2qeZ-28">
          <mxGeometry relative="1" as="geometry" />
        </mxCell>
        <mxCell id="CFgbsGdyiQTh95iq2qeZ-32" value="NAVEGAR A TRAVÉS DE MENÚS" style="ellipse;whiteSpace=wrap;html=1;" parent="Cu-u3UZeV3YFpkfiLsuk-86" vertex="1">
          <mxGeometry x="322.7442105263158" y="225" width="162.10526315789474" height="76.30000000000001" as="geometry" />
        </mxCell>
        <mxCell id="CFgbsGdyiQTh95iq2qeZ-36" style="edgeStyle=orthogonalEdgeStyle;rounded=0;orthogonalLoop=1;jettySize=auto;html=1;exitX=1;exitY=0;exitDx=0;exitDy=0;entryX=0;entryY=0.5;entryDx=0;entryDy=0;" parent="Cu-u3UZeV3YFpkfiLsuk-86" source="CFgbsGdyiQTh95iq2qeZ-28" target="CFgbsGdyiQTh95iq2qeZ-32" edge="1">
          <mxGeometry relative="1" as="geometry" />
        </mxCell>
        <mxCell id="CFgbsGdyiQTh95iq2qeZ-37" value="INCLUDE" style="edgeLabel;html=1;align=center;verticalAlign=middle;resizable=0;points=[];" parent="CFgbsGdyiQTh95iq2qeZ-36" vertex="1" connectable="0">
          <mxGeometry x="0.1374" y="-3" relative="1" as="geometry">
            <mxPoint as="offset" />
          </mxGeometry>
        </mxCell>
        <mxCell id="CFgbsGdyiQTh95iq2qeZ-34" value="Visualizar contenido" style="ellipse;whiteSpace=wrap;html=1;" parent="Cu-u3UZeV3YFpkfiLsuk-86" vertex="1">
          <mxGeometry x="322.7442105263158" y="660" width="162.10526315789474" height="76.30000000000001" as="geometry" />
        </mxCell>
        <mxCell id="CFgbsGdyiQTh95iq2qeZ-35" style="edgeStyle=orthogonalEdgeStyle;rounded=0;orthogonalLoop=1;jettySize=auto;html=1;exitX=1;exitY=1;exitDx=0;exitDy=0;entryX=0;entryY=0.5;entryDx=0;entryDy=0;" parent="Cu-u3UZeV3YFpkfiLsuk-86" source="CFgbsGdyiQTh95iq2qeZ-28" target="CFgbsGdyiQTh95iq2qeZ-34" edge="1">
          <mxGeometry relative="1" as="geometry" />
        </mxCell>
        <mxCell id="CFgbsGdyiQTh95iq2qeZ-38" value="INCLUDE" style="edgeLabel;html=1;align=center;verticalAlign=middle;resizable=0;points=[];" parent="CFgbsGdyiQTh95iq2qeZ-35" vertex="1" connectable="0">
          <mxGeometry x="0.1334" relative="1" as="geometry">
            <mxPoint as="offset" />
          </mxGeometry>
        </mxCell>
        <mxCell id="CFgbsGdyiQTh95iq2qeZ-39" value="MENU SERVICIOS" style="ellipse;whiteSpace=wrap;html=1;" parent="Cu-u3UZeV3YFpkfiLsuk-86" vertex="1">
          <mxGeometry x="590.7442105263158" y="20" width="162.10526315789474" height="76.30000000000001" as="geometry" />
        </mxCell>
        <mxCell id="Cu-u3UZeV3YFpkfiLsuk-1" value="MENU PRODUCTOS" style="ellipse;whiteSpace=wrap;html=1;" vertex="1" parent="Cu-u3UZeV3YFpkfiLsuk-86">
          <mxGeometry x="590.7442105263158" y="148.70000000000005" width="162.10526315789474" height="76.30000000000001" as="geometry" />
        </mxCell>
        <mxCell id="Cu-u3UZeV3YFpkfiLsuk-2" value="MENU GUARDERÍA" style="ellipse;whiteSpace=wrap;html=1;" vertex="1" parent="Cu-u3UZeV3YFpkfiLsuk-86">
          <mxGeometry x="590.7442105263158" y="320" width="162.10526315789474" height="76.30000000000001" as="geometry" />
        </mxCell>
        <mxCell id="Cu-u3UZeV3YFpkfiLsuk-3" value="MENU PROMOCIONES" style="ellipse;whiteSpace=wrap;html=1;" vertex="1" parent="Cu-u3UZeV3YFpkfiLsuk-86">
          <mxGeometry x="590.7442105263158" y="490" width="162.10526315789474" height="76.30000000000001" as="geometry" />
        </mxCell>
        <mxCell id="Cu-u3UZeV3YFpkfiLsuk-12" value="EXTENDS" style="html=1;verticalAlign=bottom;endArrow=open;dashed=1;endSize=8;curved=0;rounded=0;exitX=0;exitY=0.5;exitDx=0;exitDy=0;entryX=1;entryY=0;entryDx=0;entryDy=0;" edge="1" parent="Cu-u3UZeV3YFpkfiLsuk-86" source="CFgbsGdyiQTh95iq2qeZ-39" target="CFgbsGdyiQTh95iq2qeZ-32">
          <mxGeometry relative="1" as="geometry">
            <mxPoint x="700.74" y="260" as="sourcePoint" />
            <mxPoint x="620.74" y="260" as="targetPoint" />
          </mxGeometry>
        </mxCell>
        <mxCell id="Cu-u3UZeV3YFpkfiLsuk-13" value="EXTENDS" style="html=1;verticalAlign=bottom;endArrow=open;dashed=1;endSize=8;curved=0;rounded=0;exitX=0;exitY=0.5;exitDx=0;exitDy=0;entryX=0.977;entryY=0.327;entryDx=0;entryDy=0;entryPerimeter=0;" edge="1" parent="Cu-u3UZeV3YFpkfiLsuk-86" source="Cu-u3UZeV3YFpkfiLsuk-1" target="CFgbsGdyiQTh95iq2qeZ-32">
          <mxGeometry x="0.0145" y="5" relative="1" as="geometry">
            <mxPoint x="600.74" y="128" as="sourcePoint" />
            <mxPoint x="470.74" y="246" as="targetPoint" />
            <mxPoint as="offset" />
          </mxGeometry>
        </mxCell>
        <mxCell id="Cu-u3UZeV3YFpkfiLsuk-14" value="EXTENDS" style="html=1;verticalAlign=bottom;endArrow=open;dashed=1;endSize=8;curved=0;rounded=0;exitX=0;exitY=0.5;exitDx=0;exitDy=0;entryX=0.975;entryY=0.671;entryDx=0;entryDy=0;entryPerimeter=0;" edge="1" parent="Cu-u3UZeV3YFpkfiLsuk-86" source="Cu-u3UZeV3YFpkfiLsuk-2" target="CFgbsGdyiQTh95iq2qeZ-32">
          <mxGeometry x="0.0145" y="5" relative="1" as="geometry">
            <mxPoint x="600.74" y="234" as="sourcePoint" />
            <mxPoint x="480.74" y="256" as="targetPoint" />
            <mxPoint as="offset" />
          </mxGeometry>
        </mxCell>
        <mxCell id="Cu-u3UZeV3YFpkfiLsuk-15" value="EXTENDS" style="html=1;verticalAlign=bottom;endArrow=open;dashed=1;endSize=8;curved=0;rounded=0;exitX=0;exitY=0.5;exitDx=0;exitDy=0;entryX=1;entryY=1;entryDx=0;entryDy=0;" edge="1" parent="Cu-u3UZeV3YFpkfiLsuk-86" source="Cu-u3UZeV3YFpkfiLsuk-3" target="CFgbsGdyiQTh95iq2qeZ-32">
          <mxGeometry x="0.0145" y="5" relative="1" as="geometry">
            <mxPoint x="600.74" y="349" as="sourcePoint" />
            <mxPoint x="490.74" y="286" as="targetPoint" />
            <mxPoint as="offset" />
          </mxGeometry>
        </mxCell>
        <mxCell id="Cu-u3UZeV3YFpkfiLsuk-32" value="VER PRODUCTOS" style="ellipse;whiteSpace=wrap;html=1;" vertex="1" parent="Cu-u3UZeV3YFpkfiLsuk-86">
          <mxGeometry x="838.63" y="110" width="162.11" height="36.3" as="geometry" />
        </mxCell>
        <mxCell id="Cu-u3UZeV3YFpkfiLsuk-63" value="MODIFICAR PEDIDO" style="ellipse;whiteSpace=wrap;html=1;" vertex="1" parent="Cu-u3UZeV3YFpkfiLsuk-86">
          <mxGeometry x="838.63" y="230" width="162.11" height="36.3" as="geometry" />
        </mxCell>
        <mxCell id="Cu-u3UZeV3YFpkfiLsuk-62" value="ELEGIR PRODUCTOS" style="ellipse;whiteSpace=wrap;html=1;" vertex="1" parent="Cu-u3UZeV3YFpkfiLsuk-86">
          <mxGeometry x="838.63" y="168.70000000000005" width="162.11" height="36.3" as="geometry" />
        </mxCell>
        <mxCell id="Cu-u3UZeV3YFpkfiLsuk-64" value="" style="endArrow=block;dashed=1;endFill=0;endSize=12;html=1;rounded=0;exitX=0;exitY=0.5;exitDx=0;exitDy=0;entryX=1;entryY=0;entryDx=0;entryDy=0;" edge="1" parent="Cu-u3UZeV3YFpkfiLsuk-86" source="Cu-u3UZeV3YFpkfiLsuk-32" target="Cu-u3UZeV3YFpkfiLsuk-1">
          <mxGeometry width="160" relative="1" as="geometry">
            <mxPoint x="526.74" y="320" as="sourcePoint" />
            <mxPoint x="686.74" y="320" as="targetPoint" />
          </mxGeometry>
        </mxCell>
        <mxCell id="Cu-u3UZeV3YFpkfiLsuk-67" value="EXTENDS" style="edgeLabel;html=1;align=center;verticalAlign=middle;resizable=0;points=[];" vertex="1" connectable="0" parent="Cu-u3UZeV3YFpkfiLsuk-64">
          <mxGeometry x="-0.2225" y="3" relative="1" as="geometry">
            <mxPoint as="offset" />
          </mxGeometry>
        </mxCell>
        <mxCell id="Cu-u3UZeV3YFpkfiLsuk-65" value="" style="endArrow=block;dashed=1;endFill=0;endSize=12;html=1;rounded=0;exitX=0;exitY=0.5;exitDx=0;exitDy=0;entryX=1;entryY=0.5;entryDx=0;entryDy=0;" edge="1" parent="Cu-u3UZeV3YFpkfiLsuk-86" source="Cu-u3UZeV3YFpkfiLsuk-62" target="Cu-u3UZeV3YFpkfiLsuk-1">
          <mxGeometry width="160" relative="1" as="geometry">
            <mxPoint x="803.74" y="184" as="sourcePoint" />
            <mxPoint x="739.74" y="207" as="targetPoint" />
          </mxGeometry>
        </mxCell>
        <mxCell id="Cu-u3UZeV3YFpkfiLsuk-68" value="EXTENDS" style="edgeLabel;html=1;align=center;verticalAlign=middle;resizable=0;points=[];" vertex="1" connectable="0" parent="Cu-u3UZeV3YFpkfiLsuk-65">
          <mxGeometry x="-0.2746" y="-1" relative="1" as="geometry">
            <mxPoint as="offset" />
          </mxGeometry>
        </mxCell>
        <mxCell id="Cu-u3UZeV3YFpkfiLsuk-66" value="" style="endArrow=block;dashed=1;endFill=0;endSize=12;html=1;rounded=0;exitX=0;exitY=0.5;exitDx=0;exitDy=0;entryX=1;entryY=1;entryDx=0;entryDy=0;" edge="1" parent="Cu-u3UZeV3YFpkfiLsuk-86" source="Cu-u3UZeV3YFpkfiLsuk-63" target="Cu-u3UZeV3YFpkfiLsuk-1">
          <mxGeometry width="160" relative="1" as="geometry">
            <mxPoint x="803.74" y="184" as="sourcePoint" />
            <mxPoint x="739.74" y="207" as="targetPoint" />
          </mxGeometry>
        </mxCell>
        <mxCell id="Cu-u3UZeV3YFpkfiLsuk-69" value="EXTENDS" style="edgeLabel;html=1;align=center;verticalAlign=middle;resizable=0;points=[];" vertex="1" connectable="0" parent="Cu-u3UZeV3YFpkfiLsuk-66">
          <mxGeometry x="0.0283" y="2" relative="1" as="geometry">
            <mxPoint as="offset" />
          </mxGeometry>
        </mxCell>
        <mxCell id="Cu-u3UZeV3YFpkfiLsuk-70" value="VER GUARDERIAS" style="ellipse;whiteSpace=wrap;html=1;" vertex="1" parent="Cu-u3UZeV3YFpkfiLsuk-86">
          <mxGeometry x="838.63" y="290" width="162.11" height="36.3" as="geometry" />
        </mxCell>
        <mxCell id="Cu-u3UZeV3YFpkfiLsuk-71" value="SELECCIONAR GUARDERIA" style="ellipse;whiteSpace=wrap;html=1;" vertex="1" parent="Cu-u3UZeV3YFpkfiLsuk-86">
          <mxGeometry x="838.63" y="380" width="162.11" height="36.3" as="geometry" />
        </mxCell>
        <mxCell id="Cu-u3UZeV3YFpkfiLsuk-72" value="" style="endArrow=block;dashed=1;endFill=0;endSize=12;html=1;rounded=0;exitX=0;exitY=0.5;exitDx=0;exitDy=0;entryX=1;entryY=0;entryDx=0;entryDy=0;" edge="1" parent="Cu-u3UZeV3YFpkfiLsuk-86" source="Cu-u3UZeV3YFpkfiLsuk-70" target="Cu-u3UZeV3YFpkfiLsuk-2">
          <mxGeometry width="160" relative="1" as="geometry">
            <mxPoint x="926.74" y="350" as="sourcePoint" />
            <mxPoint x="766.74" y="350" as="targetPoint" />
          </mxGeometry>
        </mxCell>
        <mxCell id="Cu-u3UZeV3YFpkfiLsuk-74" value="EXTENDS" style="edgeLabel;html=1;align=center;verticalAlign=middle;resizable=0;points=[];" vertex="1" connectable="0" parent="Cu-u3UZeV3YFpkfiLsuk-72">
          <mxGeometry x="-0.1644" y="3" relative="1" as="geometry">
            <mxPoint as="offset" />
          </mxGeometry>
        </mxCell>
        <mxCell id="Cu-u3UZeV3YFpkfiLsuk-73" value="" style="endArrow=block;dashed=1;endFill=0;endSize=12;html=1;rounded=0;exitX=0;exitY=0.5;exitDx=0;exitDy=0;entryX=1;entryY=1;entryDx=0;entryDy=0;" edge="1" parent="Cu-u3UZeV3YFpkfiLsuk-86" source="Cu-u3UZeV3YFpkfiLsuk-71" target="Cu-u3UZeV3YFpkfiLsuk-2">
          <mxGeometry width="160" relative="1" as="geometry">
            <mxPoint x="926.74" y="350" as="sourcePoint" />
            <mxPoint x="766.74" y="350" as="targetPoint" />
          </mxGeometry>
        </mxCell>
        <mxCell id="Cu-u3UZeV3YFpkfiLsuk-75" value="EXTENDS" style="edgeLabel;html=1;align=center;verticalAlign=middle;resizable=0;points=[];" vertex="1" connectable="0" parent="Cu-u3UZeV3YFpkfiLsuk-73">
          <mxGeometry x="-0.1004" y="4" relative="1" as="geometry">
            <mxPoint x="4" y="-4" as="offset" />
          </mxGeometry>
        </mxCell>
        <mxCell id="Cu-u3UZeV3YFpkfiLsuk-77" value="VER CUIDADOS PARA TU MASCOTA" style="ellipse;whiteSpace=wrap;html=1;" vertex="1" parent="Cu-u3UZeV3YFpkfiLsuk-86">
          <mxGeometry x="590.7442105263158" y="600" width="162.10526315789474" height="76.30000000000001" as="geometry" />
        </mxCell>
        <mxCell id="Cu-u3UZeV3YFpkfiLsuk-78" value="VER RECOMENDACIONES DE VIAJE" style="ellipse;whiteSpace=wrap;html=1;" vertex="1" parent="Cu-u3UZeV3YFpkfiLsuk-86">
          <mxGeometry x="590.7442105263158" y="683" width="162.10526315789474" height="76.30000000000001" as="geometry" />
        </mxCell>
        <mxCell id="Cu-u3UZeV3YFpkfiLsuk-79" value="VER RECETAS PARA TU PELUDO" style="ellipse;whiteSpace=wrap;html=1;" vertex="1" parent="Cu-u3UZeV3YFpkfiLsuk-86">
          <mxGeometry x="590.7442105263158" y="770" width="162.10526315789474" height="76.30000000000001" as="geometry" />
        </mxCell>
        <mxCell id="Cu-u3UZeV3YFpkfiLsuk-80" value="REALIZAR ASIGNACIÓN DE CITAS" style="ellipse;whiteSpace=wrap;html=1;" vertex="1" parent="Cu-u3UZeV3YFpkfiLsuk-86">
          <mxGeometry x="590.7442105263158" y="860" width="162.10526315789474" height="76.30000000000001" as="geometry" />
        </mxCell>
        <mxCell id="Cu-u3UZeV3YFpkfiLsuk-82" value="EXTENDS" style="endArrow=open;endSize=12;dashed=1;html=1;rounded=0;exitX=0;exitY=0.5;exitDx=0;exitDy=0;entryX=1;entryY=0;entryDx=0;entryDy=0;" edge="1" parent="Cu-u3UZeV3YFpkfiLsuk-86" source="Cu-u3UZeV3YFpkfiLsuk-77" target="CFgbsGdyiQTh95iq2qeZ-34">
          <mxGeometry width="160" relative="1" as="geometry">
            <mxPoint x="426.74" y="700" as="sourcePoint" />
            <mxPoint x="586.74" y="700" as="targetPoint" />
          </mxGeometry>
        </mxCell>
        <mxCell id="Cu-u3UZeV3YFpkfiLsuk-83" value="EXTENDS" style="endArrow=open;endSize=12;dashed=1;html=1;rounded=0;exitX=0;exitY=0.5;exitDx=0;exitDy=0;entryX=1;entryY=0.5;entryDx=0;entryDy=0;" edge="1" parent="Cu-u3UZeV3YFpkfiLsuk-86" source="Cu-u3UZeV3YFpkfiLsuk-78" target="CFgbsGdyiQTh95iq2qeZ-34">
          <mxGeometry width="160" relative="1" as="geometry">
            <mxPoint x="600.74" y="648" as="sourcePoint" />
            <mxPoint x="470.74" y="681" as="targetPoint" />
          </mxGeometry>
        </mxCell>
        <mxCell id="Cu-u3UZeV3YFpkfiLsuk-84" value="EXTENDS" style="endArrow=open;endSize=12;dashed=1;html=1;rounded=0;exitX=0;exitY=0.5;exitDx=0;exitDy=0;entryX=1;entryY=1;entryDx=0;entryDy=0;" edge="1" parent="Cu-u3UZeV3YFpkfiLsuk-86" source="Cu-u3UZeV3YFpkfiLsuk-79" target="CFgbsGdyiQTh95iq2qeZ-34">
          <mxGeometry width="160" relative="1" as="geometry">
            <mxPoint x="610.74" y="658" as="sourcePoint" />
            <mxPoint x="480.74" y="691" as="targetPoint" />
          </mxGeometry>
        </mxCell>
        <mxCell id="Cu-u3UZeV3YFpkfiLsuk-85" value="EXTENDS" style="endArrow=open;endSize=12;dashed=1;html=1;rounded=0;exitX=0;exitY=0.5;exitDx=0;exitDy=0;entryX=0.742;entryY=0.924;entryDx=0;entryDy=0;entryPerimeter=0;" edge="1" parent="Cu-u3UZeV3YFpkfiLsuk-86" source="Cu-u3UZeV3YFpkfiLsuk-80" target="CFgbsGdyiQTh95iq2qeZ-34">
          <mxGeometry width="160" relative="1" as="geometry">
            <mxPoint x="600.74" y="818" as="sourcePoint" />
            <mxPoint x="471.74" y="735" as="targetPoint" />
          </mxGeometry>
        </mxCell>
        <mxCell id="Cu-u3UZeV3YFpkfiLsuk-88" value="VER HISTORIAL DE CITAS" style="ellipse;whiteSpace=wrap;html=1;" vertex="1" parent="Cu-u3UZeV3YFpkfiLsuk-86">
          <mxGeometry x="838.64" y="820" width="162.11" height="40" as="geometry" />
        </mxCell>
        <mxCell id="Cu-u3UZeV3YFpkfiLsuk-91" value="EXTENDS" style="html=1;verticalAlign=bottom;endArrow=open;dashed=1;endSize=8;curved=0;rounded=0;exitX=0;exitY=0.5;exitDx=0;exitDy=0;entryX=1;entryY=0;entryDx=0;entryDy=0;" edge="1" parent="Cu-u3UZeV3YFpkfiLsuk-86" source="Cu-u3UZeV3YFpkfiLsuk-88" target="Cu-u3UZeV3YFpkfiLsuk-80">
          <mxGeometry x="-0.033" y="16" relative="1" as="geometry">
            <mxPoint x="600.74" y="770" as="sourcePoint" />
            <mxPoint x="520.74" y="770" as="targetPoint" />
            <mxPoint y="1" as="offset" />
          </mxGeometry>
        </mxCell>
        <mxCell id="Cu-u3UZeV3YFpkfiLsuk-93" value="EDITAR CITA ASIGNADA" style="ellipse;whiteSpace=wrap;html=1;" vertex="1" parent="Cu-u3UZeV3YFpkfiLsuk-86">
          <mxGeometry x="838.64" y="878.15" width="162.11" height="40" as="geometry" />
        </mxCell>
        <mxCell id="Cu-u3UZeV3YFpkfiLsuk-94" value="EXTENDS" style="html=1;verticalAlign=bottom;endArrow=open;dashed=1;endSize=8;curved=0;rounded=0;exitX=0;exitY=0.5;exitDx=0;exitDy=0;entryX=1;entryY=0.5;entryDx=0;entryDy=0;" edge="1" parent="Cu-u3UZeV3YFpkfiLsuk-86">
          <mxGeometry x="-0.1165" y="11" relative="1" as="geometry">
            <mxPoint x="838.639999999998" y="899.1500000000001" as="sourcePoint" />
            <mxPoint x="752.8494736842106" y="899.1499999999999" as="targetPoint" />
            <mxPoint as="offset" />
          </mxGeometry>
        </mxCell>
        <mxCell id="Cu-u3UZeV3YFpkfiLsuk-95" value="EDITAR CITA ASIGNADA" style="ellipse;whiteSpace=wrap;html=1;" vertex="1" parent="Cu-u3UZeV3YFpkfiLsuk-86">
          <mxGeometry x="838.64" y="936.3000000000002" width="162.11" height="40" as="geometry" />
        </mxCell>
        <mxCell id="Cu-u3UZeV3YFpkfiLsuk-96" value="EXTENDS" style="html=1;verticalAlign=bottom;endArrow=open;dashed=1;endSize=8;curved=0;rounded=0;exitX=0;exitY=0.5;exitDx=0;exitDy=0;entryX=1;entryY=1;entryDx=0;entryDy=0;" edge="1" parent="Cu-u3UZeV3YFpkfiLsuk-86" source="Cu-u3UZeV3YFpkfiLsuk-95" target="Cu-u3UZeV3YFpkfiLsuk-80">
          <mxGeometry x="-0.1165" y="11" relative="1" as="geometry">
            <mxPoint x="848.639999999998" y="909.1500000000001" as="sourcePoint" />
            <mxPoint x="762.8494736842106" y="909.1499999999999" as="targetPoint" />
            <mxPoint as="offset" />
          </mxGeometry>
        </mxCell>
        <mxCell id="Cu-u3UZeV3YFpkfiLsuk-119" value="" style="group" vertex="1" connectable="0" parent="1">
          <mxGeometry x="60" y="1540" width="980" height="820" as="geometry" />
        </mxCell>
        <mxCell id="Cu-u3UZeV3YFpkfiLsuk-130" style="edgeStyle=orthogonalEdgeStyle;rounded=0;orthogonalLoop=1;jettySize=auto;html=1;exitX=0.5;exitY=0.5;exitDx=0;exitDy=0;exitPerimeter=0;entryX=0;entryY=0.5;entryDx=0;entryDy=0;" edge="1" parent="Cu-u3UZeV3YFpkfiLsuk-119" source="Cu-u3UZeV3YFpkfiLsuk-120" target="Cu-u3UZeV3YFpkfiLsuk-126">
          <mxGeometry relative="1" as="geometry" />
        </mxCell>
        <mxCell id="Cu-u3UZeV3YFpkfiLsuk-131" style="edgeStyle=orthogonalEdgeStyle;rounded=0;orthogonalLoop=1;jettySize=auto;html=1;exitX=0.5;exitY=0.5;exitDx=0;exitDy=0;exitPerimeter=0;entryX=0;entryY=0.5;entryDx=0;entryDy=0;" edge="1" parent="Cu-u3UZeV3YFpkfiLsuk-119" source="Cu-u3UZeV3YFpkfiLsuk-120" target="Cu-u3UZeV3YFpkfiLsuk-127">
          <mxGeometry relative="1" as="geometry" />
        </mxCell>
        <mxCell id="Cu-u3UZeV3YFpkfiLsuk-135" style="edgeStyle=orthogonalEdgeStyle;rounded=0;orthogonalLoop=1;jettySize=auto;html=1;exitX=0.5;exitY=0.5;exitDx=0;exitDy=0;exitPerimeter=0;entryX=0;entryY=0.5;entryDx=0;entryDy=0;" edge="1" parent="Cu-u3UZeV3YFpkfiLsuk-119" source="Cu-u3UZeV3YFpkfiLsuk-120" target="Cu-u3UZeV3YFpkfiLsuk-134">
          <mxGeometry relative="1" as="geometry" />
        </mxCell>
        <mxCell id="Cu-u3UZeV3YFpkfiLsuk-120" value="Administrador" style="shape=umlActor;verticalLabelPosition=bottom;verticalAlign=top;html=1;outlineConnect=0;container=0;" vertex="1" parent="Cu-u3UZeV3YFpkfiLsuk-119">
          <mxGeometry y="50" width="30" height="60" as="geometry" />
        </mxCell>
        <mxCell id="Cu-u3UZeV3YFpkfiLsuk-121" value="Michi y Firu" style="shape=umlFrame;whiteSpace=wrap;html=1;pointerEvents=0;container=0;" vertex="1" parent="Cu-u3UZeV3YFpkfiLsuk-119">
          <mxGeometry x="60" width="920" height="820" as="geometry" />
        </mxCell>
        <mxCell id="Cu-u3UZeV3YFpkfiLsuk-124" value="INGRESAR A LA PAGINA WEB" style="ellipse;whiteSpace=wrap;html=1;container=0;" vertex="1" parent="Cu-u3UZeV3YFpkfiLsuk-119">
          <mxGeometry x="206" y="45" width="140" height="70" as="geometry" />
        </mxCell>
        <mxCell id="Cu-u3UZeV3YFpkfiLsuk-125" style="edgeStyle=orthogonalEdgeStyle;rounded=0;orthogonalLoop=1;jettySize=auto;html=1;exitX=0.5;exitY=0.5;exitDx=0;exitDy=0;exitPerimeter=0;" edge="1" parent="Cu-u3UZeV3YFpkfiLsuk-119" source="Cu-u3UZeV3YFpkfiLsuk-120" target="Cu-u3UZeV3YFpkfiLsuk-124">
          <mxGeometry relative="1" as="geometry" />
        </mxCell>
        <mxCell id="Cu-u3UZeV3YFpkfiLsuk-126" value="GESTIONAR INFORMACIÓN DE LOS USUARIOS" style="ellipse;whiteSpace=wrap;html=1;container=0;" vertex="1" parent="Cu-u3UZeV3YFpkfiLsuk-119">
          <mxGeometry x="206" y="214" width="140" height="70" as="geometry" />
        </mxCell>
        <mxCell id="Cu-u3UZeV3YFpkfiLsuk-127" value="GESTIONAR INFORMACIÓN DE LA PAGINA WEB" style="ellipse;whiteSpace=wrap;html=1;container=0;" vertex="1" parent="Cu-u3UZeV3YFpkfiLsuk-119">
          <mxGeometry x="206" y="424" width="140" height="70" as="geometry" />
        </mxCell>
        <mxCell id="Cu-u3UZeV3YFpkfiLsuk-132" value="REGISTRAR USUARIOS NUEVOS" style="ellipse;whiteSpace=wrap;html=1;container=0;" vertex="1" parent="Cu-u3UZeV3YFpkfiLsuk-119">
          <mxGeometry x="450" y="160" width="180" height="36" as="geometry" />
        </mxCell>
        <mxCell id="Cu-u3UZeV3YFpkfiLsuk-133" value="GESTIONAR USUARIOS Y CONTRASEÑAS" style="ellipse;whiteSpace=wrap;html=1;container=0;" vertex="1" parent="Cu-u3UZeV3YFpkfiLsuk-119">
          <mxGeometry x="450" y="231" width="180" height="36" as="geometry" />
        </mxCell>
        <mxCell id="Cu-u3UZeV3YFpkfiLsuk-134" value="GESTIONAR CITAS MÉDICAS" style="ellipse;whiteSpace=wrap;html=1;container=0;" vertex="1" parent="Cu-u3UZeV3YFpkfiLsuk-119">
          <mxGeometry x="206" y="634" width="140" height="70" as="geometry" />
        </mxCell>
        <mxCell id="Cu-u3UZeV3YFpkfiLsuk-136" value="ADMINISTRAR PERFILES DE USUARIOS" style="ellipse;whiteSpace=wrap;html=1;container=0;" vertex="1" parent="Cu-u3UZeV3YFpkfiLsuk-119">
          <mxGeometry x="450" y="300" width="180" height="36" as="geometry" />
        </mxCell>
        <mxCell id="Cu-u3UZeV3YFpkfiLsuk-137" value="EXTENDS" style="endArrow=open;endSize=12;dashed=1;html=1;rounded=0;exitX=0;exitY=0.5;exitDx=0;exitDy=0;entryX=1;entryY=0;entryDx=0;entryDy=0;" edge="1" parent="Cu-u3UZeV3YFpkfiLsuk-119" source="Cu-u3UZeV3YFpkfiLsuk-132" target="Cu-u3UZeV3YFpkfiLsuk-126">
          <mxGeometry width="160" relative="1" as="geometry">
            <mxPoint x="300" y="280" as="sourcePoint" />
            <mxPoint x="460" y="280" as="targetPoint" />
          </mxGeometry>
        </mxCell>
        <mxCell id="Cu-u3UZeV3YFpkfiLsuk-138" value="EXTENDS" style="endArrow=open;endSize=12;dashed=1;html=1;rounded=0;exitX=0;exitY=0.5;exitDx=0;exitDy=0;entryX=1;entryY=0.5;entryDx=0;entryDy=0;" edge="1" parent="Cu-u3UZeV3YFpkfiLsuk-119" source="Cu-u3UZeV3YFpkfiLsuk-133" target="Cu-u3UZeV3YFpkfiLsuk-126">
          <mxGeometry width="160" relative="1" as="geometry">
            <mxPoint x="300" y="280" as="sourcePoint" />
            <mxPoint x="460" y="280" as="targetPoint" />
          </mxGeometry>
        </mxCell>
        <mxCell id="Cu-u3UZeV3YFpkfiLsuk-139" value="EXTENDS" style="endArrow=open;endSize=12;dashed=1;html=1;rounded=0;exitX=0;exitY=0.5;exitDx=0;exitDy=0;entryX=1;entryY=1;entryDx=0;entryDy=0;" edge="1" parent="Cu-u3UZeV3YFpkfiLsuk-119" source="Cu-u3UZeV3YFpkfiLsuk-136" target="Cu-u3UZeV3YFpkfiLsuk-126">
          <mxGeometry width="160" relative="1" as="geometry">
            <mxPoint x="300" y="280" as="sourcePoint" />
            <mxPoint x="460" y="280" as="targetPoint" />
          </mxGeometry>
        </mxCell>
        <mxCell id="Cu-u3UZeV3YFpkfiLsuk-147" value="ACTUALIZAR INFORMACIÓN" style="ellipse;whiteSpace=wrap;html=1;container=0;" vertex="1" parent="Cu-u3UZeV3YFpkfiLsuk-119">
          <mxGeometry x="450" y="370" width="180" height="36" as="geometry" />
        </mxCell>
        <mxCell id="Cu-u3UZeV3YFpkfiLsuk-148" value="AGREGAR PROMOCIONES" style="ellipse;whiteSpace=wrap;html=1;container=0;" vertex="1" parent="Cu-u3UZeV3YFpkfiLsuk-119">
          <mxGeometry x="450" y="441" width="180" height="36" as="geometry" />
        </mxCell>
        <mxCell id="Cu-u3UZeV3YFpkfiLsuk-149" value="MODIFICAR INFORMACIÓN EDUCATIVA" style="ellipse;whiteSpace=wrap;html=1;container=0;" vertex="1" parent="Cu-u3UZeV3YFpkfiLsuk-119">
          <mxGeometry x="450" y="510" width="180" height="36" as="geometry" />
        </mxCell>
        <mxCell id="Cu-u3UZeV3YFpkfiLsuk-150" value="EXTENDS" style="endArrow=open;endSize=12;dashed=1;html=1;rounded=0;exitX=0;exitY=0.5;exitDx=0;exitDy=0;entryX=1;entryY=0;entryDx=0;entryDy=0;" edge="1" parent="Cu-u3UZeV3YFpkfiLsuk-119" source="Cu-u3UZeV3YFpkfiLsuk-147" target="Cu-u3UZeV3YFpkfiLsuk-127">
          <mxGeometry width="160" relative="1" as="geometry">
            <mxPoint x="300" y="490" as="sourcePoint" />
            <mxPoint x="326" y="434" as="targetPoint" />
          </mxGeometry>
        </mxCell>
        <mxCell id="Cu-u3UZeV3YFpkfiLsuk-151" value="EXTENDS" style="endArrow=open;endSize=12;dashed=1;html=1;rounded=0;exitX=0;exitY=0.5;exitDx=0;exitDy=0;entryX=1;entryY=0.5;entryDx=0;entryDy=0;" edge="1" parent="Cu-u3UZeV3YFpkfiLsuk-119" source="Cu-u3UZeV3YFpkfiLsuk-148" target="Cu-u3UZeV3YFpkfiLsuk-127">
          <mxGeometry width="160" relative="1" as="geometry">
            <mxPoint x="300" y="490" as="sourcePoint" />
            <mxPoint x="346" y="459" as="targetPoint" />
          </mxGeometry>
        </mxCell>
        <mxCell id="Cu-u3UZeV3YFpkfiLsuk-152" value="EXTENDS" style="endArrow=open;endSize=12;dashed=1;html=1;rounded=0;exitX=0;exitY=0.5;exitDx=0;exitDy=0;entryX=1;entryY=1;entryDx=0;entryDy=0;" edge="1" parent="Cu-u3UZeV3YFpkfiLsuk-119" source="Cu-u3UZeV3YFpkfiLsuk-149" target="Cu-u3UZeV3YFpkfiLsuk-127">
          <mxGeometry width="160" relative="1" as="geometry">
            <mxPoint x="300" y="490" as="sourcePoint" />
            <mxPoint x="326" y="484" as="targetPoint" />
          </mxGeometry>
        </mxCell>
        <mxCell id="Cu-u3UZeV3YFpkfiLsuk-165" value="AGENDAR CITAS" style="ellipse;whiteSpace=wrap;html=1;container=0;" vertex="1" parent="Cu-u3UZeV3YFpkfiLsuk-119">
          <mxGeometry x="450" y="580" width="180" height="36" as="geometry" />
        </mxCell>
        <mxCell id="Cu-u3UZeV3YFpkfiLsuk-166" value="MODIFICAR CITAS" style="ellipse;whiteSpace=wrap;html=1;container=0;" vertex="1" parent="Cu-u3UZeV3YFpkfiLsuk-119">
          <mxGeometry x="450" y="651" width="180" height="36" as="geometry" />
        </mxCell>
        <mxCell id="Cu-u3UZeV3YFpkfiLsuk-167" value="ELIMINAR CITAS" style="ellipse;whiteSpace=wrap;html=1;container=0;" vertex="1" parent="Cu-u3UZeV3YFpkfiLsuk-119">
          <mxGeometry x="450" y="720" width="180" height="36" as="geometry" />
        </mxCell>
        <mxCell id="Cu-u3UZeV3YFpkfiLsuk-168" value="EXTENDS" style="endArrow=open;endSize=12;dashed=1;html=1;rounded=0;exitX=0;exitY=0.5;exitDx=0;exitDy=0;entryX=1;entryY=0;entryDx=0;entryDy=0;" edge="1" parent="Cu-u3UZeV3YFpkfiLsuk-119" source="Cu-u3UZeV3YFpkfiLsuk-165" target="Cu-u3UZeV3YFpkfiLsuk-134">
          <mxGeometry width="160" relative="1" as="geometry">
            <mxPoint x="300" y="700" as="sourcePoint" />
            <mxPoint x="350" y="640" as="targetPoint" />
          </mxGeometry>
        </mxCell>
        <mxCell id="Cu-u3UZeV3YFpkfiLsuk-169" value="EXTENDS" style="endArrow=open;endSize=12;dashed=1;html=1;rounded=0;exitX=0;exitY=0.5;exitDx=0;exitDy=0;entryX=1;entryY=0.5;entryDx=0;entryDy=0;" edge="1" parent="Cu-u3UZeV3YFpkfiLsuk-119" source="Cu-u3UZeV3YFpkfiLsuk-166" target="Cu-u3UZeV3YFpkfiLsuk-134">
          <mxGeometry width="160" relative="1" as="geometry">
            <mxPoint x="300" y="700" as="sourcePoint" />
            <mxPoint x="370" y="669" as="targetPoint" />
          </mxGeometry>
        </mxCell>
        <mxCell id="Cu-u3UZeV3YFpkfiLsuk-170" value="EXTENDS" style="endArrow=open;endSize=12;dashed=1;html=1;rounded=0;exitX=0;exitY=0.5;exitDx=0;exitDy=0;entryX=1;entryY=1;entryDx=0;entryDy=0;" edge="1" parent="Cu-u3UZeV3YFpkfiLsuk-119" source="Cu-u3UZeV3YFpkfiLsuk-167" target="Cu-u3UZeV3YFpkfiLsuk-134">
          <mxGeometry width="160" relative="1" as="geometry">
            <mxPoint x="300" y="700" as="sourcePoint" />
            <mxPoint x="320" y="730" as="targetPoint" />
          </mxGeometry>
        </mxCell>
        <mxCell id="Cu-u3UZeV3YFpkfiLsuk-171" value="" style="group" vertex="1" connectable="0" parent="1">
          <mxGeometry x="40" y="20" width="1000" height="340" as="geometry" />
        </mxCell>
        <mxCell id="Cu-u3UZeV3YFpkfiLsuk-87" value="" style="group" vertex="1" connectable="0" parent="Cu-u3UZeV3YFpkfiLsuk-171">
          <mxGeometry width="460" height="340" as="geometry" />
        </mxCell>
        <mxCell id="CFgbsGdyiQTh95iq2qeZ-1" value="Usuario" style="shape=umlActor;verticalLabelPosition=bottom;verticalAlign=top;html=1;outlineConnect=0;container=0;" parent="Cu-u3UZeV3YFpkfiLsuk-87" vertex="1">
          <mxGeometry y="50" width="30" height="60" as="geometry" />
        </mxCell>
        <mxCell id="CFgbsGdyiQTh95iq2qeZ-5" style="edgeStyle=orthogonalEdgeStyle;rounded=0;orthogonalLoop=1;jettySize=auto;html=1;" parent="Cu-u3UZeV3YFpkfiLsuk-87" source="CFgbsGdyiQTh95iq2qeZ-3" target="CFgbsGdyiQTh95iq2qeZ-1" edge="1">
          <mxGeometry relative="1" as="geometry" />
        </mxCell>
        <mxCell id="CFgbsGdyiQTh95iq2qeZ-3" value="Administrador" style="shape=umlActor;verticalLabelPosition=bottom;verticalAlign=top;html=1;container=0;" parent="Cu-u3UZeV3YFpkfiLsuk-87" vertex="1">
          <mxGeometry y="190" width="30" height="60" as="geometry" />
        </mxCell>
        <mxCell id="CFgbsGdyiQTh95iq2qeZ-6" value="INGRESAR A LA PAGINA WEB" style="ellipse;whiteSpace=wrap;html=1;container=0;" parent="Cu-u3UZeV3YFpkfiLsuk-87" vertex="1">
          <mxGeometry x="206" y="45" width="140" height="70" as="geometry" />
        </mxCell>
        <mxCell id="Cu-u3UZeV3YFpkfiLsuk-16" style="edgeStyle=orthogonalEdgeStyle;rounded=0;orthogonalLoop=1;jettySize=auto;html=1;exitX=0.5;exitY=0.5;exitDx=0;exitDy=0;exitPerimeter=0;" edge="1" parent="Cu-u3UZeV3YFpkfiLsuk-87" source="CFgbsGdyiQTh95iq2qeZ-1" target="CFgbsGdyiQTh95iq2qeZ-6">
          <mxGeometry relative="1" as="geometry" />
        </mxCell>
        <mxCell id="Cu-u3UZeV3YFpkfiLsuk-17" value="REGISTRAR UN NUEVO USUARIO" style="ellipse;whiteSpace=wrap;html=1;container=0;" vertex="1" parent="Cu-u3UZeV3YFpkfiLsuk-87">
          <mxGeometry x="206" y="130" width="140" height="70" as="geometry" />
        </mxCell>
        <mxCell id="Cu-u3UZeV3YFpkfiLsuk-26" value="GESTIONAR DATOS DEL USUARIO" style="ellipse;whiteSpace=wrap;html=1;container=0;" vertex="1" parent="Cu-u3UZeV3YFpkfiLsuk-87">
          <mxGeometry x="206" y="220" width="140" height="70" as="geometry" />
        </mxCell>
        <mxCell id="Cu-u3UZeV3YFpkfiLsuk-30" value="" style="endArrow=open;endFill=1;endSize=12;html=1;rounded=0;exitX=0.5;exitY=0.5;exitDx=0;exitDy=0;exitPerimeter=0;entryX=0;entryY=0.5;entryDx=0;entryDy=0;" edge="1" parent="Cu-u3UZeV3YFpkfiLsuk-87" source="CFgbsGdyiQTh95iq2qeZ-1" target="Cu-u3UZeV3YFpkfiLsuk-26">
          <mxGeometry width="160" relative="1" as="geometry">
            <mxPoint x="56" y="240" as="sourcePoint" />
            <mxPoint x="216" y="240" as="targetPoint" />
          </mxGeometry>
        </mxCell>
        <mxCell id="Cu-u3UZeV3YFpkfiLsuk-31" value="" style="endArrow=open;endFill=1;endSize=12;html=1;rounded=0;exitX=0.5;exitY=0.5;exitDx=0;exitDy=0;exitPerimeter=0;entryX=0;entryY=0.5;entryDx=0;entryDy=0;" edge="1" parent="Cu-u3UZeV3YFpkfiLsuk-87" source="CFgbsGdyiQTh95iq2qeZ-1" target="Cu-u3UZeV3YFpkfiLsuk-17">
          <mxGeometry width="160" relative="1" as="geometry">
            <mxPoint x="56" y="240" as="sourcePoint" />
            <mxPoint x="216" y="240" as="targetPoint" />
          </mxGeometry>
        </mxCell>
        <mxCell id="CFgbsGdyiQTh95iq2qeZ-2" value="Michi y Firu" style="shape=umlFrame;whiteSpace=wrap;html=1;pointerEvents=0;container=0;" parent="Cu-u3UZeV3YFpkfiLsuk-171" vertex="1">
          <mxGeometry x="80" width="920" height="340" as="geometry" />
        </mxCell>
      </root>
    </mxGraphModel>
  </diagram>
</mxfile>
